<svg xmlns="http://www.w3.org/2000/svg" viewBox="0 0 29.79 33.43"><defs><style>.cls-1{fill:#2b2e34;}</style></defs><g id="Ebene_2" data-name="Ebene 2"><g id="Ebene_1-2" data-name="Ebene 1"><path id="Pfad_1" data-name="Pfad 1" class="cls-1" d="M29.75,19.28l-4-14.6A1,1,0,0,0,25.11,4L10.51,0A1,1,0,0,0,9.66.2l-.05,0,0,0L.29,9.47h0l-.06.06a1,1,0,0,0-.19.92L4.45,24.6a1,1,0,0,0,.53.6l17.89,8.14a.9.9,0,0,0,.4.09,1,1,0,0,0,.9-.59h0l5.4-12.69v0a1,1,0,0,0,.17-.85m-6.3,10.25-2.56-9h6.4Zm4.08-11h-7.2l-1.71-6,5.71-5.79Zm-16.3,0V12.45l5.53.7,1.54,5.41ZM22.91,5.42l-5.74,5.82-5.94-.76V2.26ZM9.28,10.23l-6.2-.79,6.2-6.2ZM2.36,11.32l6.92.88v7.33a1.49,1.49,0,0,0,0,.21L6,23ZM7.57,24.23l3.72-3.72h7.56l2.9,10.18Z"/></g></g></svg>