<svg xmlns="http://www.w3.org/2000/svg" viewBox="0 0 24 24"><defs><style>.cls-1{fill:#854085;}</style></defs><g id="Ebene_2" data-name="Ebene 2"><g id="Ebene_1-2" data-name="Ebene 1"><path id="Vereinigungsmenge_20" data-name="Vereinigungsmenge 20" class="cls-1" d="M4.8,24A4.8,4.8,0,0,1,0,19.2V4.8A4.8,4.8,0,0,1,4.8,0H19.2A4.8,4.8,0,0,1,24,4.8V19.2A4.8,4.8,0,0,1,19.2,24Zm-.28-4.13H20.28L15,11.24,11.5,15.55,9,12.6ZM6,8a2.4,2.4,0,1,0,2.4-2.4h0A2.39,2.39,0,0,0,6,8Zm.67,10.7,2.48-4,2.37,2.8,3.3-4.12,3.3,5.35ZM7.2,8a1.2,1.2,0,1,1,1.2,1.2A1.2,1.2,0,0,1,7.2,8Z"/></g></g></svg>