<svg xmlns="http://www.w3.org/2000/svg" viewBox="0 0 18 18"><defs><style>.cls-1{fill:#707070;}</style></defs><g id="Ebene_2" data-name="Ebene 2"><g id="Ebene_1-2" data-name="Ebene 1"><path id="Vereinigungsmenge_21" data-name="Vereinigungsmenge 21" class="cls-1" d="M9,18H4a4,4,0,0,1-4-4V4A4,4,0,0,1,4,0H14a4,4,0,0,1,4,4V14a4,4,0,0,1-4,4ZM8.2,13.47H9.69V8.16H8.2ZM8.25,5.2A1,1,0,0,0,8,5.93a1,1,0,0,0,.28.73,1.07,1.07,0,0,0,1.44,0A.92.92,0,0,0,10,6a1,1,0,0,0-1.06-1A1,1,0,0,0,8.25,5.2Z"/></g></g></svg>