<svg xmlns="http://www.w3.org/2000/svg" xmlns:xlink="http://www.w3.org/1999/xlink" viewBox="0 0 20 20"><defs><style>.cls-1{fill:none;}.cls-2{clip-path:url(#clip-path);}.cls-3{fill:#8359f0;}</style><clipPath id="clip-path" transform="translate(0 0)"><rect class="cls-1" width="20" height="20"/></clipPath></defs><g id="Ebene_2" data-name="Ebene 2"><g id="Ebene_1-2" data-name="Ebene 1"><g class="cls-2"><g id="Gruppe_172" data-name="Gruppe 172"><path id="Pfad_660" data-name="Pfad 660" class="cls-3" d="M5,15.39a.86.86,0,1,0-.83-.88.83.83,0,0,0,.25.63.79.79,0,0,0,.58.25m0-4.56A.85.85,0,1,0,4.17,10a.81.81,0,0,0,.25.62.79.79,0,0,0,.58.25M5,6.28a.82.82,0,0,0,.83-.82.78.78,0,0,0-.25-.6.81.81,0,0,0-1.16,0A.83.83,0,0,0,4.39,6l0,0A.79.79,0,0,0,5,6.28m4,9.28h6a1,1,0,0,0,1-1h0a1,1,0,0,0-1-1H9a1,1,0,0,0-1,1h0A1,1,0,0,0,9,15.56ZM9,11h6a1,1,0,0,0,1-1h0a1,1,0,0,0-1-1H9a1,1,0,0,0-1,1h0A1,1,0,0,0,9,11ZM9,6.44h6a1,1,0,0,0,1-1h0a1,1,0,0,0-1-1H9a1,1,0,0,0-1,1h0A1,1,0,0,0,9,6.44ZM1.67,20A1.61,1.61,0,0,1,.5,19.5,1.61,1.61,0,0,1,0,18.33V1.67A1.61,1.61,0,0,1,.5.5,1.61,1.61,0,0,1,1.67,0H18.33A1.61,1.61,0,0,1,19.5.5,1.61,1.61,0,0,1,20,1.67V18.33A1.71,1.71,0,0,1,18.33,20Z" transform="translate(0 0)"/></g></g></g></g></svg>