<svg xmlns="http://www.w3.org/2000/svg" xmlns:xlink="http://www.w3.org/1999/xlink" viewBox="0 0 16.89 17.94"><defs><style>.cls-1{fill:none;}.cls-2{clip-path:url(#clip-path);}.cls-3{fill:#f5f5f5;}</style><clipPath id="clip-path" transform="translate(0 0)"><rect class="cls-1" width="16.89" height="17.94"/></clipPath></defs><g id="Ebene_2" data-name="Ebene 2"><g id="Ebene_1-2" data-name="Ebene 1"><g class="cls-2"><g id="Gruppe_297" data-name="Gruppe 297"><path id="Pfad_921" data-name="Pfad 921" class="cls-3" d="M16.85,7.75a.62.62,0,0,1-.11.17L15.26,9.4h0a.51.51,0,0,1-.72-.72h0l.61-.62H10a.5.5,0,0,1-.51-.5A.51.51,0,0,1,10,7.05h5.21l-.62-.62h0a.51.51,0,1,1,.72-.72L16.74,7.2a.5.5,0,0,1,.11.17h0a.47.47,0,0,1,0,.37ZM13.09,10.1h0a.51.51,0,0,0-.51.51h0v3a.51.51,0,0,1-.51.51H8.43V4.55a1.53,1.53,0,0,0-.89-1.39L2.84,1h9.23a.51.51,0,0,1,.51.51h0v3a.51.51,0,0,0,.51.51.5.5,0,0,0,.5-.51h0v-3A1.52,1.52,0,0,0,12.07,0H1.52A1.51,1.51,0,0,0,0,1.44V13.68a1.1,1.1,0,0,0,0,.18s0,.07,0,.11H0a2.24,2.24,0,0,0,1.24,1.55l5,2.28a1.57,1.57,0,0,0,.64.14,1.49,1.49,0,0,0,.82-.25,1.51,1.51,0,0,0,.7-1.28v-1.3h3.64a1.52,1.52,0,0,0,1.52-1.52h0v-3h0a.5.5,0,0,0-.5-.51h0Z" transform="translate(0 0)"/></g></g></g></g></svg>