<svg xmlns="http://www.w3.org/2000/svg" viewBox="0 0 24 24"><defs><style>.cls-1{fill:#a4262c;}</style></defs><g id="Ebene_2" data-name="Ebene 2"><g id="Ebene_1-2" data-name="Ebene 1"><path id="Vereinigungsmenge_18" data-name="Vereinigungsmenge 18" class="cls-1" d="M4.8,24A4.8,4.8,0,0,1,0,19.2V4.8A4.8,4.8,0,0,1,4.8,0H19.2A4.8,4.8,0,0,1,24,4.8V19.2A4.8,4.8,0,0,1,19.2,24Zm-.46-4.34H14.69V14.49h-1.2v4H5.54v-8h4V9.31H4.34ZM10.06,8.77A5.17,5.17,0,1,0,15.23,3.6,5.16,5.16,0,0,0,10.06,8.77Zm1.2,0a4,4,0,1,1,4,4A4,4,0,0,1,11.26,8.77Z"/></g></g></svg>