<svg xmlns="http://www.w3.org/2000/svg" viewBox="0 0 24 24"><defs><style>.cls-1{fill:#ca5010;}</style></defs><g id="Ebene_2" data-name="Ebene 2"><g id="Ebene_1-2" data-name="Ebene 1"><path id="Vereinigungsmenge_16" data-name="Vereinigungsmenge 16" class="cls-1" d="M4.8,24A4.8,4.8,0,0,1,0,19.2V4.8A4.8,4.8,0,0,1,4.8,0H19.2A4.8,4.8,0,0,1,24,4.8V19.2A4.8,4.8,0,0,1,19.2,24ZM12,19.34a7.2,7.2,0,0,0,0-14.4v7.2H4.8a7.2,7.2,0,0,0,7.2,7.2Zm-8.4-8.4h7.2V3.74a7.2,7.2,0,0,0-7.2,7.2Zm2.52,2.4H13.2V6.26a6,6,0,1,1-7.08,7.08Zm-1.2-3.6A6,6,0,0,1,9.6,5.06V9.74Z"/></g></g></svg>