<svg xmlns="http://www.w3.org/2000/svg" viewBox="0 0 20 20"><defs><style>.cls-1{fill:#8359f0;}</style></defs><g id="Ebene_2" data-name="Ebene 2"><g id="Ebene_1-2" data-name="Ebene 1"><path id="Differenzmenge_2" data-name="Differenzmenge 2" class="cls-1" d="M18,20H2a2,2,0,0,1-2-2V2A2,2,0,0,1,2,0H18a2,2,0,0,1,2,2V18A2,2,0,0,1,18,20ZM13,5a1,1,0,0,0-1,1v8a1,1,0,0,0,1,1h4a1,1,0,0,0,1-1V6a1,1,0,0,0-1-1ZM3,13a1,1,0,0,0,0,2H9a1,1,0,0,0,0-2ZM3,9a1,1,0,0,0,0,2H9A1,1,0,0,0,9,9ZM3,5A1,1,0,0,0,3,7H9A1,1,0,0,0,9,5Z"/></g></g></svg>