<svg xmlns="http://www.w3.org/2000/svg" xmlns:xlink="http://www.w3.org/1999/xlink" viewBox="0 0 16.7 16.68"><defs><style>.cls-1{fill:none;}.cls-2{clip-path:url(#clip-path);}.cls-3{fill:#8359f0;}</style><clipPath id="clip-path" transform="translate(0 0)"><rect class="cls-1" width="16.7" height="16.68"/></clipPath></defs><g id="Ebene_2" data-name="Ebene 2"><g id="Ebene_1-2" data-name="Ebene 1"><g class="cls-2"><g id="Gruppe_228" data-name="Gruppe 228"><path id="Pfad_663" data-name="Pfad 663" class="cls-3" d="M15.22,16.68,9.35,10.83a4.75,4.75,0,0,1-1.49.79A5.89,5.89,0,0,1,6,11.9a5.81,5.81,0,0,1-4.25-1.74A5.78,5.78,0,0,1,0,6,5.8,5.8,0,0,1,1.74,1.74,5.78,5.78,0,0,1,6,0a5.69,5.69,0,0,1,4.21,1.74A5.75,5.75,0,0,1,11.9,6a5.9,5.9,0,0,1-.27,1.82,5.53,5.53,0,0,1-.82,1.58l5.89,5.84ZM6,9.85A3.68,3.68,0,0,0,8.73,8.71,3.76,3.76,0,0,0,9.85,6,3.77,3.77,0,0,0,8.73,3.19,3.7,3.7,0,0,0,6,2.05,3.8,3.8,0,0,0,3.19,3.19,3.76,3.76,0,0,0,2.05,6,3.72,3.72,0,0,0,3.19,8.71,3.79,3.79,0,0,0,6,9.85" transform="translate(0 0)"/></g></g></g></g></svg>