<svg xmlns="http://www.w3.org/2000/svg" xmlns:xlink="http://www.w3.org/1999/xlink" viewBox="0 0 20 20"><defs><style>.cls-1{fill:none;}.cls-2{clip-path:url(#clip-path);}.cls-3{fill:#f5f5f5;}</style><clipPath id="clip-path"><rect class="cls-1" width="20" height="20"/></clipPath></defs><g id="Ebene_2" data-name="Ebene 2"><g id="Ebene_1-2" data-name="Ebene 1"><g class="cls-2"><g id="Gruppe_168" data-name="Gruppe 168"><path id="Pfad_657" data-name="Pfad 657" class="cls-3" d="M7.7,20l-.5-3.15a7,7,0,0,1-1-.47,9.5,9.5,0,0,1-.93-.63L2.33,17.1,0,13l2.7-2a2.1,2.1,0,0,1-.06-.51c0-.19,0-.36,0-.51s0-.32,0-.51A2.16,2.16,0,0,1,2.7,9L0,7,2.33,2.9l3,1.35a8.31,8.31,0,0,1,.92-.63,6,6,0,0,1,1-.45L7.7,0h4.6l.5,3.15a8.42,8.42,0,0,1,1,.46,4.15,4.15,0,0,1,.91.64l3-1.35L20,7,17.3,8.93a3.07,3.07,0,0,1,.06.53c0,.19,0,.37,0,.54a4.61,4.61,0,0,1,0,.52,3.07,3.07,0,0,1-.06.53L20,13l-2.33,4.1-3-1.35a7.41,7.41,0,0,1-.91.64,4.41,4.41,0,0,1-1,.46L12.3,20ZM10,13.25A3.25,3.25,0,0,0,13.25,10h0A3.25,3.25,0,0,0,10,6.75h0A3.25,3.25,0,0,0,6.75,10h0A3.25,3.25,0,0,0,10,13.25h0"/></g></g></g></g></svg>