<svg xmlns="http://www.w3.org/2000/svg" xmlns:xlink="http://www.w3.org/1999/xlink" viewBox="0 0 20 16.04"><defs><style>.cls-1{fill:none;}.cls-2{clip-path:url(#clip-path);}.cls-3{fill:#8359f0;}</style><clipPath id="clip-path" transform="translate(0 0)"><rect class="cls-1" width="20" height="16.04"/></clipPath></defs><g id="Ebene_2" data-name="Ebene 2"><g id="Ebene_1-2" data-name="Ebene 1"><g class="cls-2"><g id="Gruppe_295" data-name="Gruppe 295"><path id="Pfad_920" data-name="Pfad 920" class="cls-3" d="M0,6V1.53A1.5,1.5,0,0,1,1.53,0h3A1.48,1.48,0,0,1,5.59.44,1.46,1.46,0,0,1,6,1.53V6a1.44,1.44,0,0,1-.45,1.09,1.44,1.44,0,0,1-1.07.44h-3A1.5,1.5,0,0,1,0,6.07ZM8.54,7.53A1.5,1.5,0,0,1,7,6.06V1.54A1.51,1.51,0,0,1,7.45.44,1.47,1.47,0,0,1,8.54,0h3a1.55,1.55,0,0,1,1.08.44A1.46,1.46,0,0,1,13,1.54V6a1.46,1.46,0,0,1-.45,1.1,1.55,1.55,0,0,1-1.08.44Zm7,0a1.49,1.49,0,0,1-1.09-.44A1.51,1.51,0,0,1,14,6V1.54a1.51,1.51,0,0,1,.44-1.1A1.49,1.49,0,0,1,15.51,0h3a1.49,1.49,0,0,1,1.09.44A1.51,1.51,0,0,1,20,1.54V6a1.5,1.5,0,0,1-1.46,1.54h-3ZM4.51,16h-3A1.5,1.5,0,0,1,0,14.58V10A1.48,1.48,0,0,1,.44,8.94a1.44,1.44,0,0,1,1.09-.45h3a1.46,1.46,0,0,1,1.08.45A1.49,1.49,0,0,1,6,10V14.5a1.48,1.48,0,0,1-.45,1.1A1.44,1.44,0,0,1,4.52,16m4,0A1.48,1.48,0,0,1,7,14.58V10a1.51,1.51,0,0,1,.43-1.08,1.48,1.48,0,0,1,1.1-.45h3A1.55,1.55,0,0,1,13,10v4.49A1.54,1.54,0,0,1,11.5,16h-3m7,0a1.49,1.49,0,0,1-1.09-.44A1.51,1.51,0,0,1,14,14.5V10a1.56,1.56,0,0,1,.44-1.08,1.44,1.44,0,0,1,1.09-.45h3a1.44,1.44,0,0,1,1.09.45A1.48,1.48,0,0,1,20,10V14.5A1.5,1.5,0,0,1,18.54,16h-3Z" transform="translate(0 0)"/></g></g></g></g></svg>