<svg xmlns="http://www.w3.org/2000/svg" xmlns:xlink="http://www.w3.org/1999/xlink" viewBox="0 0 24.06 24.06"><defs><style>.cls-1{fill:none;}.cls-2{fill:#867365;}.cls-3{clip-path:url(#clip-path);}</style><clipPath id="clip-path" transform="translate(0)"><rect class="cls-1" width="24" height="24"/></clipPath></defs><g id="Ebene_2" data-name="Ebene 2"><g id="Ebene_1-2" data-name="Ebene 1"><path id="Pfad_970" data-name="Pfad 970" class="cls-2" d="M14.78,10.45h1.53V12H14.78v1.53h1.53v1.55H14.78v1.53h3V8.92h-3Z" transform="translate(0)"/><path id="Pfad_971" data-name="Pfad 971" class="cls-2" d="M13.25,13.51V12h1.53V10.45H13.25V8.92H11.43L10,7.47H6.23v9.12h7V15.06h1.55V13.51Z" transform="translate(0)"/><g id="Gruppe_334" data-name="Gruppe 334"><g class="cls-3"><g id="Gruppe_333" data-name="Gruppe 333"><path id="Pfad_972" data-name="Pfad 972" class="cls-2" d="M19.25,0H4.81A4.81,4.81,0,0,0,0,4.81H0V19.25a4.81,4.81,0,0,0,4.81,4.81H19.25a4.82,4.82,0,0,0,4.81-4.81V4.81A4.81,4.81,0,0,0,19.25,0m0,16.59A1.49,1.49,0,0,1,17.82,18H6.23a1.39,1.39,0,0,1-1-.44,1.35,1.35,0,0,1-.43-1V7.47a1.35,1.35,0,0,1,.43-1,1.35,1.35,0,0,1,1-.44h4.35L12,7.47h5.79a1.39,1.39,0,0,1,1,.44,1.41,1.41,0,0,1,.43,1Z" transform="translate(0)"/></g></g></g></g></g></svg>